<svg width="12" height="13" viewBox="0 0 12 13" fill="none" xmlns="http://www.w3.org/2000/svg">
<path d="M9.33773 6.02525C9.27765 5.99841 9.21663 5.97258 9.15481 5.94785C9.04715 4.09894 7.96319 3.04044 6.14311 3.02961C6.13486 3.02956 6.12666 3.02956 6.11841 3.02956C5.02977 3.02956 4.12435 3.46267 3.56708 4.25078L4.56807 4.89076C4.98438 4.30207 5.63773 4.17658 6.11889 4.17658C6.12445 4.17658 6.13003 4.17658 6.13553 4.17662C6.73482 4.18018 7.18704 4.34258 7.47973 4.65928C7.69273 4.88985 7.83519 5.20846 7.90573 5.61057C7.37439 5.5264 6.79976 5.50052 6.18547 5.53335C4.45501 5.62625 3.34253 6.56689 3.41725 7.87394C3.45517 8.53694 3.80955 9.10731 4.41508 9.47991C4.92704 9.79489 5.58642 9.94893 6.27172 9.91406C7.17672 9.86781 7.8867 9.546 8.382 8.95754C8.75816 8.51067 8.99608 7.93156 9.10112 7.20186C9.53242 7.44446 9.85207 7.76371 10.0286 8.14748C10.3288 8.79985 10.3463 9.87187 9.40776 10.7459C8.58548 11.5115 7.59705 11.8427 6.10327 11.853C4.44626 11.8415 3.19308 11.3462 2.3783 10.3808C1.61533 9.47686 1.22102 8.17118 1.20631 6.5C1.22102 4.82881 1.61533 3.52311 2.3783 2.61914C3.19308 1.65377 4.44623 1.15849 6.10324 1.14701C7.77228 1.15858 9.04729 1.65624 9.89326 2.62627C10.3081 3.10196 10.6208 3.70018 10.827 4.39768L12 4.10598C11.7501 3.24744 11.3569 2.50763 10.8217 1.89407C9.73721 0.650452 8.15106 0.0132131 6.10734 0H6.09915C4.05959 0.0131672 2.49119 0.65283 1.43755 1.9012C0.499944 3.0121 0.0163018 4.55783 5.08522e-05 6.49543L0 6.5L5.08522e-05 6.50457C0.0163018 8.44215 0.499944 9.98793 1.43755 11.0988C2.49119 12.3472 4.05959 12.9869 6.09915 13H6.10734C7.92062 12.9883 9.19876 12.5458 10.2517 11.5653C11.6293 10.2826 11.5878 8.67472 11.1338 7.68767C10.808 6.97985 10.187 6.40495 9.33773 6.02525ZM6.20693 8.7687C5.44851 8.80852 4.66058 8.49123 4.62173 7.81165C4.59293 7.30776 5.00647 6.74551 6.25348 6.67853C6.39629 6.67086 6.53642 6.6671 6.67408 6.6671C7.12703 6.6671 7.55078 6.70812 7.93602 6.78661C7.79233 8.45914 6.94949 8.73072 6.20693 8.7687Z" fill="#F77626"/>
</svg>
