<svg width="20" height="20" viewBox="0 0 20 20" fill="none" xmlns="http://www.w3.org/2000/svg">
<path d="M13.3337 1.66663V4.99996" stroke="#F77626" stroke-width="1.5" stroke-linecap="round" stroke-linejoin="round"/>
<path d="M6.66667 1.66663V4.99996" stroke="#F77626" stroke-width="1.5" stroke-linecap="round" stroke-linejoin="round"/>
<path d="M2.5 7.50004H17.5" stroke="#F77626" stroke-width="1.5" stroke-linecap="round" stroke-linejoin="round"/>
<path fill-rule="evenodd" clip-rule="evenodd" d="M15.8333 3.33337H4.16667C3.24583 3.33337 2.5 4.07921 2.5 5.00004V15.8334C2.5 16.7542 3.24583 17.5 4.16667 17.5H15.8333C16.7542 17.5 17.5 16.7542 17.5 15.8334V5.00004C17.5 4.07921 16.7542 3.33337 15.8333 3.33337Z" stroke="#F77626" stroke-width="1.5" stroke-linecap="round" stroke-linejoin="round"/>
<path d="M5.84455 10.6075C5.72955 10.6075 5.63621 10.7008 5.63705 10.8158C5.63705 10.9308 5.73038 11.0242 5.84538 11.0242C5.96038 11.0242 6.05371 10.9308 6.05371 10.8158C6.05371 10.7008 5.96038 10.6075 5.84455 10.6075" stroke="#F77626" stroke-width="1.5" stroke-linecap="round" stroke-linejoin="round"/>
<path d="M10.0106 10.6075C9.89556 10.6075 9.80223 10.7008 9.80306 10.8158C9.80306 10.9308 9.8964 11.0242 10.0114 11.0242C10.1264 11.0242 10.2197 10.9308 10.2197 10.8158C10.2197 10.7008 10.1264 10.6075 10.0106 10.6075" stroke="#F77626" stroke-width="1.5" stroke-linecap="round" stroke-linejoin="round"/>
<path d="M14.1776 10.6075C14.0626 10.6075 13.9692 10.7008 13.9701 10.8158C13.9701 10.9308 14.0634 11.0242 14.1784 11.0242C14.2934 11.0242 14.3867 10.9308 14.3867 10.8158C14.3867 10.7008 14.2934 10.6075 14.1776 10.6075" stroke="#F77626" stroke-width="1.5" stroke-linecap="round" stroke-linejoin="round"/>
<path d="M5.84455 13.9409C5.72955 13.9409 5.63621 14.0342 5.63705 14.1492C5.63705 14.2642 5.73038 14.3575 5.84538 14.3575C5.96038 14.3575 6.05371 14.2642 6.05371 14.1492C6.05371 14.0342 5.96038 13.9409 5.84455 13.9409" stroke="#F77626" stroke-width="1.5" stroke-linecap="round" stroke-linejoin="round"/>
<path d="M10.0106 13.9409C9.89556 13.9409 9.80223 14.0342 9.80306 14.1492C9.80306 14.2642 9.8964 14.3575 10.0114 14.3575C10.1264 14.3575 10.2197 14.2642 10.2197 14.1492C10.2197 14.0342 10.1264 13.9409 10.0106 13.9409" stroke="#F77626" stroke-width="1.5" stroke-linecap="round" stroke-linejoin="round"/>
</svg>
