<svg width="20" height="21" viewBox="0 0 20 21" fill="none" xmlns="http://www.w3.org/2000/svg">
<path fill-rule="evenodd" clip-rule="evenodd" d="M2.5 6.16675V6.16675C2.5 6.66675 2.75 7.08341 3.16667 7.41675L8.16667 10.8334C9.33333 11.5834 10.75 11.5834 11.9167 10.8334L16.9167 7.50008C17.25 7.08341 17.5 6.66675 17.5 6.16675V6.16675C17.5 5.33341 16.8333 4.66675 16 4.66675H4C3.16667 4.66675 2.5 5.33341 2.5 6.16675Z" stroke="#F77626" stroke-width="1.5" stroke-linecap="round" stroke-linejoin="round"/>
<path d="M2.5 6.3335V14.6668C2.5 15.5835 3.25 16.3335 4.16667 16.3335H15.8333C16.75 16.3335 17.5 15.5835 17.5 14.6668V6.3335" stroke="#F77626" stroke-width="1.5" stroke-linecap="round" stroke-linejoin="round"/>
<path opacity="0.5" d="M2.99023 15.8435L8.06857 10.7651" stroke="#F77626" stroke-width="1.5" stroke-linecap="round" stroke-linejoin="round"/>
<path opacity="0.5" d="M11.9668 10.8L17.0101 15.8434" stroke="#F77626" stroke-width="1.5" stroke-linecap="round" stroke-linejoin="round"/>
</svg>
