<svg width="101" height="20" viewBox="0 0 101 20" fill="none" xmlns="http://www.w3.org/2000/svg">
<path d="M9.65391 0.195818V3.23894H7.96862C7.96862 3.23894 6.44705 3.0213 6.44705 4.48894V6.88109H9.65391L9.27256 10.1842H6.44705V19.4369H2.75099V10.1419H0.250977V6.88109H2.86077V4.10952C2.86077 4.10952 2.53526 2.58794 3.89312 1.33795C5.2529 0.0879472 7.04604 0.195818 7.04604 0.195818H9.65391Z" fill="#8C8A97"/>
<path d="M18.5661 6.93497V8.59329C17.6223 7.35292 16.3049 6.58057 14.845 6.58057C11.979 6.58057 9.6543 9.10753 9.6543 13.2254C9.6543 17.3163 11.979 19.8702 14.845 19.8702C16.3184 19.8702 17.6474 19.0844 18.593 17.8229L18.568 19.435H22.1273V6.93305H18.5661V6.93497ZM18.3677 14.4639C18.3677 15.7254 17.2968 16.9099 15.9736 16.9099C14.6504 16.9099 13.5796 15.7254 13.5796 14.4639V12.0717C13.5796 10.8101 14.6504 9.62564 15.9736 9.62564C17.2968 9.62564 18.3677 10.8101 18.3677 12.0717V14.4639Z" fill="#8C8A97"/>
<path d="M51.2096 19.5177V17.8594C52.1534 19.0998 53.4708 19.8721 54.9307 19.8721C57.7967 19.8721 60.1214 17.3452 60.1214 13.2273C60.1214 9.1364 57.7967 6.58247 54.9307 6.58247C53.4573 6.58247 52.1283 7.36829 51.1827 8.62985L51.2077 0.372925L47.5059 0.788956V19.46L51.2096 19.5177ZM51.408 11.9908C51.408 10.7292 52.4789 9.54472 53.8021 9.54472C55.1253 9.54472 56.1961 10.7292 56.1961 11.9908V14.3829C56.1961 15.6445 55.1253 16.829 53.8021 16.829C52.4789 16.829 51.408 15.6445 51.408 14.3829V11.9908Z" fill="#8C8A97"/>
<path d="M30.1715 16.8405C30.1715 16.8405 27.3171 17.0043 27.3171 13.3082V13.106C27.3171 9.40989 30.1715 9.57361 30.1715 9.57361C32.1014 9.54664 32.7813 10.2265 32.7813 10.2265L33.6788 7.53587C32.1303 6.39373 27.4558 6.20497 25.3622 8.13294C23.5517 9.80281 23.5517 12.5089 23.5845 13.208C23.5517 13.9072 23.5517 16.6133 25.3622 18.2831C27.4539 20.213 32.1284 20.0224 33.6788 18.8802L32.7813 16.1895C32.7813 16.1876 32.1014 16.8675 30.1715 16.8405Z" fill="#8C8A97"/>
<path d="M45.9615 14.5448C45.9615 14.5448 47.4562 6.71737 40.3086 6.67499C33.1611 6.63262 34.1935 13.757 34.1935 13.757C34.3572 18.079 36.341 19.329 39.7366 19.7354C43.1341 20.1438 45.715 18.8379 45.715 18.8379L44.9273 16.3109C44.9273 16.3109 42.1827 17.1526 40.0082 16.9639C37.8337 16.7732 37.9974 14.5448 37.9974 14.5448H45.9615ZM37.9454 12.0178C37.9454 12.0178 37.7547 9.24625 40.2547 9.24625C42.7547 9.24625 42.564 12.0178 42.564 12.0178H37.9454Z" fill="#8C8A97"/>
<path d="M67.4868 6.75195C62.8335 6.75195 61.2676 9.5582 61.2676 13.312C61.2676 17.2932 63.2861 19.8721 67.4868 19.8721C70.9209 19.8721 73.7059 17.5647 73.7059 13.312C73.704 9.68917 71.9282 6.75195 67.4868 6.75195ZM69.9097 14.3964C69.9097 15.658 68.8099 16.8425 67.454 16.8425C66.0981 16.8425 64.9983 15.658 64.9983 14.3964V12.0043C64.9983 10.7427 66.0981 9.5582 67.454 9.5582C68.8099 9.5582 69.9097 10.7427 69.9097 12.0043V14.3964Z" fill="#8C8A97"/>
<path d="M81.2182 6.75195C76.5649 6.75195 74.999 9.5582 74.999 13.312C74.999 17.2932 77.0175 19.8721 81.2182 19.8721C84.6523 19.8721 87.4374 17.5647 87.4374 13.312C87.4374 9.68917 85.6616 6.75195 81.2182 6.75195ZM83.6431 14.3964C83.6431 15.658 82.5433 16.8425 81.1874 16.8425C79.8315 16.8425 78.7317 15.658 78.7317 14.3964V12.0043C78.7317 10.7427 79.8315 9.5582 81.1874 9.5582C82.5433 9.5582 83.6431 10.7427 83.6431 12.0043V14.3964Z" fill="#8C8A97"/>
<path d="M100.476 19.4908L96.4104 13.1965L100.295 6.90417H96.3218L92.5256 12.5378V0.307495L88.793 0.700414V19.4908H92.5256V13.0887L96.6223 19.4908H100.476Z" fill="#8C8A97"/>
</svg>
