<svg width="87" height="28" viewBox="0 0 87 28" fill="none" xmlns="http://www.w3.org/2000/svg">
<path d="M21.8375 9.89054H11.8709V12.8479H18.9391C18.5903 16.9955 15.1395 18.7636 11.8829 18.7636C7.71567 18.7636 4.08026 15.4847 4.08026 10.89C4.08026 6.41329 7.54638 2.96598 11.8923 2.96598C15.2456 2.96598 17.2215 5.10345 17.2215 5.10345L19.2922 2.95913C19.2922 2.95913 16.6341 0 11.7871 0C5.61496 0 0.839844 5.20945 0.839844 10.837C0.839844 16.3508 5.33196 21.7279 11.9453 21.7279C17.7618 21.7279 22.0197 17.7436 22.0197 11.851C22.0179 10.6087 21.8375 9.89054 21.8375 9.89054Z" fill="#8C8A97"/>
<path d="M30.0027 7.74878C25.9133 7.74878 22.9824 10.9456 22.9824 14.6751C22.9824 18.4592 25.8253 21.7159 30.0506 21.7159C33.8758 21.7159 37.0102 18.7918 37.0102 14.7563C37.0102 10.1308 33.3646 7.74878 30.0027 7.74878ZM30.0429 10.4916C32.0539 10.4916 33.9596 12.1178 33.9596 14.7375C33.9596 17.3016 32.0616 18.9739 30.0335 18.9739C27.8046 18.9739 26.0467 17.1887 26.0467 14.7169C26.0467 12.2982 27.7832 10.4916 30.0429 10.4916Z" fill="#8C8A97"/>
<path d="M45.2713 7.74878C41.1819 7.74878 38.251 10.9456 38.251 14.6751C38.251 18.4592 41.0938 21.7159 45.3192 21.7159C49.1444 21.7159 52.2788 18.7918 52.2788 14.7563C52.2788 10.1308 48.6331 7.74878 45.2713 7.74878ZM45.3123 10.4916C47.3233 10.4916 49.229 12.1178 49.229 14.7375C49.229 17.3016 47.331 18.9739 45.3029 18.9739C43.074 18.9739 41.3161 17.1887 41.3161 14.7169C41.3161 12.2982 43.0526 10.4916 45.3123 10.4916Z" fill="#8C8A97"/>
<path d="M60.246 7.75647C56.4926 7.75647 53.542 11.0439 53.542 14.734C53.542 18.9372 56.9628 21.7244 60.1818 21.7244C62.1723 21.7244 63.2307 20.9344 64.0122 20.0273V21.4047C64.0122 23.814 62.5493 25.2564 60.3409 25.2564C58.2077 25.2564 57.1381 23.6704 56.7662 22.7701L54.0824 23.8919C55.0348 25.9054 56.9508 28.0043 60.3631 28.0043C64.0951 28.0043 66.9397 25.6531 66.9397 20.7233V8.17457H64.0113V9.35788C63.1119 8.38833 61.8807 7.75647 60.246 7.75647ZM60.5179 10.4933C62.3586 10.4933 64.2482 12.0648 64.2482 14.7486C64.2482 17.476 62.3621 18.9799 60.4777 18.9799C58.4761 18.9799 56.6148 17.3546 56.6148 14.7751C56.614 12.0938 58.548 10.4933 60.5179 10.4933Z" fill="#8C8A97"/>
<path d="M79.9575 7.73938C76.417 7.73938 73.4434 10.5566 73.4434 14.7135C73.4434 19.1125 76.7573 21.721 80.297 21.721C83.2518 21.721 85.0652 20.1042 86.1476 18.6567L83.7332 17.0502C83.1065 18.0224 82.0591 18.9722 80.3115 18.9722C78.3484 18.9722 77.4456 17.8975 76.8864 16.8561L86.2502 12.9711L85.7638 11.8322C84.8609 9.60241 82.7499 7.73938 79.9575 7.73938ZM80.0798 10.4249C81.3554 10.4249 82.2737 11.1029 82.6636 11.9169L76.4102 14.5306C76.1409 12.5068 78.0577 10.4249 80.0798 10.4249Z" fill="#8C8A97"/>
<path d="M68.9805 21.3064H72.0559V0.722534H68.9805V21.3064Z" fill="#8C8A97"/>
</svg>
