<svg width="16" height="17" viewBox="0 0 16 17" fill="none" xmlns="http://www.w3.org/2000/svg">
<path opacity="0.4" d="M12.9497 3.41717C15.6834 6.15084 15.6834 10.583 12.9497 13.3167C10.2161 16.0503 5.78391 16.0503 3.05026 13.3167C0.316581 10.583 0.316581 6.15083 3.05026 3.41717C5.78393 0.683494 10.2161 0.683494 12.9497 3.41717" stroke="#C14E07" stroke-width="1.5" stroke-linecap="round" stroke-linejoin="round"/>
<path fill-rule="evenodd" clip-rule="evenodd" d="M9.3579 5.83914C10.5238 5.83914 11.3055 6.9257 11.3055 7.93759C11.3055 9.99092 8.05901 11.6725 7.9999 11.6725C7.94078 11.6725 4.69434 9.99092 4.69434 7.93759C4.69434 6.9257 5.47678 5.83914 6.64189 5.83914C7.30845 5.83914 7.74634 6.16892 7.9999 6.46292C8.25267 6.16892 8.69056 5.83914 9.3579 5.83914Z" fill="#C14E07"/>
</svg>
