<svg width="21" height="22" viewBox="0 0 21 22" fill="none" xmlns="http://www.w3.org/2000/svg">
<path d="M20.4289 10.2141V18.0714C20.4289 19.1133 20.015 20.1126 19.2782 20.8493C18.5414 21.5861 17.5422 22 16.5002 22H11.0002C10.7918 22 10.5919 21.9172 10.4446 21.7699C10.2972 21.6225 10.2144 21.4227 10.2144 21.2143C10.2144 21.0059 10.2972 20.806 10.4446 20.6587C10.5919 20.5113 10.7918 20.4285 11.0002 20.4285H16.5002C17.1254 20.4285 17.725 20.1802 18.167 19.7381C18.6091 19.2961 18.8574 18.6965 18.8574 18.0714H16.5002C15.8751 18.0714 15.2755 17.823 14.8335 17.381C14.3914 16.9389 14.1431 16.3394 14.1431 15.7142V11.7856C14.1431 11.1604 14.3914 10.5608 14.8335 10.1188C15.2755 9.67673 15.8751 9.42839 16.5002 9.42839H18.823C18.6744 7.795 18.064 6.23763 17.0632 4.9382C16.0624 3.63877 14.7126 2.65092 13.1713 2.09003C11.6301 1.52914 9.96105 1.41838 8.35919 1.77067C6.75733 2.12296 5.28877 2.92377 4.12506 4.07956C2.678 5.50753 1.78549 7.40326 1.60681 9.42839H3.92863C4.55379 9.42839 5.15335 9.67673 5.59541 10.1188C6.03746 10.5608 6.28581 11.1604 6.28581 11.7856V15.7142C6.28581 16.3394 6.03746 16.9389 5.59541 17.381C5.15335 17.823 4.55379 18.0714 3.92863 18.0714H2.35718C1.73202 18.0714 1.13246 17.823 0.690401 17.381C0.248345 16.9389 0 16.3394 0 15.7142V10.2141C0.00220292 8.19077 0.604639 6.21356 1.73106 4.53275C2.85747 2.85194 4.45723 1.5431 6.32783 0.771896C8.19844 0.000687694 10.2558 -0.198216 12.2395 0.200361C14.2232 0.598939 16.0441 1.57708 17.4716 3.01097C18.4141 3.95807 19.1605 5.08184 19.6679 6.31788C20.1754 7.55393 20.434 8.87796 20.4289 10.2141Z" fill="#F77626"/>
</svg>
