<svg width="20" height="20" viewBox="0 0 20 20" fill="none" xmlns="http://www.w3.org/2000/svg">
<path d="M10.3541 4.76875C10.5492 4.96383 10.5492 5.28097 10.3541 5.47605C10.1591 5.67113 9.84193 5.67113 9.64685 5.47605C9.45177 5.28097 9.45177 4.96383 9.64685 4.76875C9.84193 4.57367 10.1581 4.57367 10.3541 4.76875" stroke="#F77626" stroke-width="1.5" stroke-linecap="round" stroke-linejoin="round"/>
<path d="M14.3118 5.22498V5.22498C14.3118 6.39646 13.7916 7.50593 12.8922 8.25624L11.4786 9.43473C10.9154 9.90493 10.4942 10.5222 10.2621 11.2185L10 12.0008L9.73889 11.2175C9.50679 10.5222 9.08562 9.90393 8.52238 9.43373L7.10879 8.25524C6.20842 7.50493 5.6892 6.39546 5.6892 5.22398V5.22398V5.24599C5.6882 2.55687 7.91613 0.996216 10 0.996216C12.0839 0.996216 14.3118 2.55687 14.3118 5.24699" stroke="#F77626" stroke-width="1.5" stroke-linecap="round" stroke-linejoin="round"/>
<path d="M3.9985 10C3.0451 10 2.22376 10.6733 2.03668 11.6087L1.03627 16.6108C0.788163 17.8483 1.73556 19.0037 2.99808 19.0037H17.0029C18.2654 19.0037 19.2128 17.8483 18.9647 16.6108L17.9643 11.6087C17.7772 10.6733 16.9559 10 16.0025 10" stroke="#F77626" stroke-width="1.5" stroke-linecap="round" stroke-linejoin="round"/>
</svg>
