<svg width="24" height="24" viewBox="0 0 24 24" fill="none" xmlns="http://www.w3.org/2000/svg">
<path d="M12.053 7.77124V12.2271L15.5555 14.362" stroke="#F77626" stroke-width="1.5" stroke-linecap="round" stroke-linejoin="round"/>
<path d="M4.20676 8.74362C5.58383 4.85001 9.53017 2.48128 13.6139 3.09708C17.6977 3.71289 20.7701 7.13999 20.9378 11.2665C21.1055 15.3931 18.3213 19.0582 14.301 20.0033" stroke="#F77626" stroke-width="1.5" stroke-linecap="round" stroke-linejoin="round"/>
<path fill-rule="evenodd" clip-rule="evenodd" d="M9.99917 21.0037H3.49646C3.2202 21.0037 2.99625 20.7797 2.99625 20.5035V20.0973C2.99955 18.9417 3.93552 18.0057 5.09112 18.0024H8.4045C9.5601 18.0057 10.4961 18.9417 10.4994 20.0973V20.5035C10.4994 20.7797 10.2754 21.0037 9.99917 21.0037Z" stroke="#F77626" stroke-width="1.5" stroke-linecap="round" stroke-linejoin="round"/>
<path fill-rule="evenodd" clip-rule="evenodd" d="M6.74781 15.5014C5.64383 15.5014 4.74846 14.6072 4.747 13.5033C4.74553 12.3993 5.63852 11.5027 6.7425 11.4998C7.84648 11.4968 8.74423 12.3886 8.74866 13.4926C8.75077 14.0246 8.54091 14.5356 8.16545 14.9126C7.78999 15.2895 7.27986 15.5014 6.74781 15.5014Z" stroke="#F77626" stroke-width="1.5" stroke-linecap="round" stroke-linejoin="round"/>
</svg>
