<svg width="100" height="28" viewBox="0 0 100 28" fill="none" xmlns="http://www.w3.org/2000/svg">
<path d="M8.20164 0.984697C8.07372 0.544075 6.75897 0.193481 6.36809 0.193481C3.75516 0.193481 0.476562 4.51442 0.476562 7.93279C0.476562 9.39442 1.62787 10.8774 2.79576 11.3606C3.27428 11.5596 3.60117 11.5572 3.72199 11.3891C3.83806 11.228 3.77885 10.9248 3.49695 10.5102C2.99474 9.77108 2.82179 8.39472 2.80521 7.59876C2.76731 5.9334 3.91861 2.97699 5.20731 1.98678C5.32339 1.89676 5.52948 1.74987 5.52948 2.0294C5.52948 7.00653 5.52948 11.9718 5.52948 16.9466C5.52948 17.7283 5.33998 18.8891 5.18363 19.7585C5.13388 20.038 4.54876 21.4949 5.01307 21.4949C5.44185 21.4949 6.34678 20.879 6.67132 20.5355C7.29909 19.8675 7.74444 18.9886 7.99081 18.0742C8.13768 17.5269 8.2135 16.2454 8.2135 15.7076V1.02024C8.20639 1.00839 8.20401 0.99891 8.20164 0.984697Z" fill="#8C8A97"/>
<path d="M99.3887 14.5682C99.3082 14.4972 99.2087 14.4474 99.095 14.4474C98.8771 14.4474 98.7373 14.5706 98.6923 14.7506C98.6046 15.106 98.4791 15.6793 98.3559 16.0749C98.1427 16.7642 97.8205 17.4252 97.2804 17.4252C96.2831 17.4252 96.0604 15.5063 96.013 14.8857C95.9538 14.1181 95.9491 13.2464 95.9301 12.5736V10.1644L96.0272 8.90174C96.0509 8.59141 96.1006 8.35453 96.0201 8.05367C95.9514 7.79783 95.7998 7.57514 95.5961 7.41879C95.1673 7.09187 94.0065 6.68679 93.5659 6.68679C93.3195 6.68679 93.0969 6.78628 92.9358 6.94737C92.7605 7.12267 92.6254 7.44485 92.5354 7.66279C92.308 8.21002 92.1114 8.70275 91.9432 9.16943C91.7347 9.74271 91.4575 10.6618 91.2301 11.5526C91.0738 12.1685 90.9695 12.7204 90.8748 13.3293C90.8606 13.4193 90.8606 13.4454 90.8464 13.5354C90.8464 13.5378 90.8393 13.597 90.8298 13.6159C90.8085 13.6704 90.7421 13.6562 90.7327 13.5993C90.7208 13.5259 90.7137 13.4643 90.709 13.3909C90.5882 11.9742 90.4626 10.5008 90.4981 9.0723C90.5076 8.70511 90.5171 8.26685 90.446 7.99916C90.3844 7.77175 90.2707 7.56567 90.1167 7.39747C89.7495 6.99239 89.1147 6.80049 88.6006 6.73179C88.3471 6.69863 88.0439 6.64178 87.8189 6.77444C87.6057 6.9 87.4351 7.24348 87.3356 7.44247C86.6889 8.73828 86.1701 10.4676 85.6916 11.9056L85.7082 7.75044C85.7082 7.65569 85.7152 7.49223 85.6916 7.39747C85.6608 7.27903 85.5897 7.1748 85.4949 7.10373C85.4618 7.08004 85.3386 7.02079 85.2367 6.99237C84.8127 6.87392 84.4147 6.78867 83.9741 6.72471C83.877 6.71049 83.7301 6.68679 83.633 6.68679C83.4719 6.68679 83.3392 6.78155 83.2729 6.91657C83.145 7.16768 83.1521 11.87 83.1639 13.8054C83.1 14.3313 83.0005 15.0207 82.8038 15.6698C82.638 16.217 82.079 17.3399 81.418 17.4702C80.7192 17.6099 80.3165 16.885 80.1601 15.7645C79.9564 13.931 80.044 10.4842 80.1577 8.54403C80.2122 7.60356 80.3875 7.24821 79.3926 6.99474C78.7174 6.82181 78.31 6.79577 78.0304 6.83604C77.7414 6.87868 77.6064 7.22691 77.6538 7.84283C76.7939 6.52571 75.5549 6.33854 74.6903 6.43093C72.6601 6.65124 71.2127 9.62191 70.9639 11.8771C70.8123 13.2511 70.9426 14.5019 71.1108 15.5419C71.0611 16.2383 70.9544 17.4986 69.7036 17.4299C68.6708 17.373 68.0786 15.6769 68.261 13.4051C68.3771 11.9624 68.8508 9.92985 68.9906 9.25471C69.2938 7.77176 68.4268 7.48748 67.2092 7.64857C66.5695 7.73385 65.6883 7.91864 64.7171 8.0821C64.9208 7.33589 64.8426 6.53754 64.2646 6.26275C63.7363 6.01164 62.8219 6.0614 62.3078 6.62994C61.5759 7.43538 61.384 8.8733 62.495 9.60056C62.36 10.7211 61.0879 13.7675 59.4746 15.9019C59.5007 14.6772 59.6262 9.16944 59.5623 7.7007C59.5386 7.17006 59.0672 6.96397 58.636 6.87158C58.5697 6.85736 58.0153 6.80523 58.0153 6.79813C57.7216 6.77444 57.4444 6.81234 57.2478 6.97106C56.9967 7.17241 57.0086 7.40693 57.0417 7.85466C56.1226 6.44752 54.8339 6.33146 53.9123 6.51624C51.9769 6.90237 50.6172 9.65979 50.3732 11.8795C50.276 12.7726 50.2689 13.6515 50.3211 14.4474C50.3424 14.7649 50.3708 15.0657 50.4135 15.3547C50.1055 16.4657 49.5867 17.3328 48.9305 17.4749C48.234 17.6265 47.8289 16.8898 47.6726 15.7693C47.4689 13.9357 47.5565 10.4889 47.6702 8.54877C47.7247 7.60831 47.9 7.25296 46.9051 6.99948C46.2299 6.82655 45.8224 6.80051 45.5429 6.84078C45.2539 6.88342 45.1189 7.23165 45.1663 7.84758C44.3063 6.53045 43.0674 6.34329 42.2027 6.43567C40.1726 6.65598 38.7251 9.62662 38.4764 11.8818C38.3888 12.6754 38.3959 13.4288 38.448 14.1229C38.2916 14.6038 38.0429 15.2078 37.851 15.5679C36.6239 17.8824 35.257 17.6076 35.0415 14.7933C34.9751 13.9286 34.9585 13.0166 34.9585 12.1472C35.0272 10.143 35.0983 8.13659 35.167 6.13247C36.2709 6.14195 37.389 6.13484 38.5475 6.0993C39.0165 6.08509 39.3197 4.54764 38.8839 4.51685C37.6639 4.43156 36.4486 4.35339 35.2309 4.28469L35.3423 1.07004C35.3423 1.06056 35.3423 1.0511 35.3352 1.02741C35.2712 0.804733 35.0983 0.714715 34.8875 0.643647C34.6387 0.563103 34.2431 0.437545 33.8641 0.342788C33.3192 0.207759 32.5801 0.0182434 32.5233 0.845001C32.4806 1.46566 32.4356 2.7212 32.3953 4.13545C31.5473 4.09518 30.6945 4.05965 29.8345 4.02649C29.3323 4.00754 28.7448 5.99742 29.5479 6.01637C30.4955 6.03769 31.4241 6.06139 32.3503 6.08271C32.3219 7.41641 32.2106 10.2994 32.2129 12.7892C31.732 14.0376 31.064 15.2362 30.2515 15.8759C30.4836 15.0609 30.4007 13.4904 28.6098 12.1069C27.9749 11.6165 27.2145 11.0361 26.1485 10.2354C26.8141 9.42054 27.5343 8.26686 27.5509 7.38088C27.5604 6.83365 27.141 6.31486 26.2006 6.32197C24.5021 6.33381 23.365 7.91626 23.3697 9.22154C23.3721 10.0436 23.8956 10.624 24.123 10.9272C21.3822 16.0583 20.7757 16.686 20.2498 16.686C19.9087 16.686 19.7524 15.9422 19.7784 13.6491C19.8021 11.5976 19.9443 10.2141 19.9466 8.54877C19.9466 7.85231 19.5107 7.45434 19.063 7.19849C18.8143 7.05636 17.7364 6.65599 17.4142 6.64651C16.9428 6.6323 16.2653 7.06583 15.7015 7.69596C14.3867 9.16233 13.6547 11.401 13.0341 13.2653L13.0506 7.75281C13.0506 7.65806 13.0578 7.4946 13.0341 7.39985C12.9748 7.16295 12.8019 7.05633 12.5816 6.99474C12.1647 6.87866 11.4113 6.68917 10.9778 6.68917C10.8167 6.68917 10.7078 6.80049 10.658 6.93551C10.6154 7.05159 10.6486 9.66216 10.6343 12.3888C10.6249 14.1868 10.6107 15.9185 10.6438 17.0509C10.6794 18.2495 10.703 19.0076 12.2357 19.0147C12.9512 19.0171 13.1099 19.036 13.2094 18.4367C13.5552 16.3923 14.6829 11.4294 17.156 8.78804C17.2342 8.7146 17.3763 8.7596 17.3669 8.92542C17.201 11.5715 17.0091 14.7127 17.3621 17.2807C17.4616 18.0103 17.8975 19.1213 18.7882 19.1213C19.9845 19.1213 20.8563 18.8489 23.1352 15.1865C23.6919 14.2911 24.3244 13.2085 25.0896 11.8771C25.5562 12.3035 26.0324 12.7204 26.492 13.154C27.3353 13.9452 27.802 14.7791 27.821 15.5419C27.8423 16.4823 27.359 17.2806 26.5938 17.2783C25.5183 17.2735 24.9806 16.2312 24.3339 16.2336C23.654 16.2359 23.1091 17.4275 23.1139 17.9416C23.121 18.5291 24.6584 19.209 26.6365 19.2042C28.136 19.2019 29.3228 18.6215 30.3438 17.7142C31.1469 16.9987 31.9595 15.6034 32.4119 14.4687C32.4877 16.4444 33.5656 19.0076 35.4157 19.0076C36.2946 19.0076 37.1451 18.4177 37.8013 17.5839C38.2419 17.0248 38.4953 16.5818 38.7607 15.9327C38.9289 16.4871 39.1658 17.0983 39.3529 17.3802C39.9049 18.2188 40.6416 18.9744 41.7337 19.0455C42.9774 19.126 43.8089 18.676 44.4556 18.0529C44.9507 17.5768 45.2302 17.1693 45.5903 16.5415C45.7277 17.8255 46.9359 19.055 48.3951 19.0266C49.7525 19.0005 50.4111 17.9463 50.7901 16.7287C50.9204 17.0343 51.0862 17.328 51.2971 17.6123C52.8937 19.7751 55.4901 19.3582 57.1365 17.1906C57.146 17.6928 57.1554 18.1808 57.1578 18.3206C55.708 19.7112 54.0616 20.9951 52.8487 22.5255C52.0859 23.4896 51.7708 24.5604 51.8158 25.3445C51.9082 26.9151 53.6068 28.0001 55.13 28.0001C58.1243 28.0001 59.0671 25.7543 59.5125 22.6273C59.7518 20.9525 59.5622 19.2398 59.6001 17.7189C61.4195 15.6105 63.625 12.2467 64.267 9.58874L66.0389 9.54371C66.1242 9.54134 66.2403 9.5532 66.3019 9.61479C66.3516 9.66454 66.2995 9.80904 66.264 9.99144C65.7996 12.3438 65.1719 15.0846 66.3469 17.2475C66.9107 18.2851 67.7895 19.0195 69.0167 19.0408C70.1537 19.0597 71.1771 18.105 71.7078 17.1669C72.274 18.0861 73.0391 18.9673 74.2236 19.0431C75.4673 19.1237 76.2988 18.6736 76.9455 18.0506C77.4406 17.5744 77.7201 17.1669 78.0802 16.5392C78.156 16.7832 78.2247 17.1717 78.336 17.3872C78.824 18.3135 79.7337 19.0029 80.5842 19.036C82.3324 19.1047 82.7588 17.9511 83.1829 17.0793C83.19 17.437 83.2374 18.1666 83.2942 18.4296C83.3226 18.5622 83.4174 18.6594 83.5382 18.7186C83.9741 18.9365 84.5592 19.0076 85.1017 19.0052C85.4333 19.0029 85.8953 19.0503 86.1014 18.7423C86.2198 18.567 86.2127 18.1832 86.2222 17.9724C86.2625 17.1409 86.2909 15.7385 86.3454 15.1913C86.5231 13.6823 86.7268 12.8626 87.1224 11.8913C87.3664 11.2896 87.5772 10.6571 88.0676 9.828C88.0913 9.78773 88.1339 9.75692 88.1837 9.75692C88.2761 9.75692 88.314 9.83746 88.314 9.90379C88.3282 10.586 88.34 11.2091 88.3708 11.7918C88.4538 13.4051 88.5864 14.7151 88.8351 16.1222C88.8801 16.3828 88.9275 16.6789 89.0104 16.9324C89.2355 17.6194 89.8822 18.1145 90.6426 18.1145C90.8748 18.1145 91.0951 18.0695 91.2965 17.9866C91.3557 17.9629 91.4102 17.9345 91.4623 17.8989C91.5665 17.8302 91.621 17.7615 91.6471 17.6384C91.6636 17.5602 91.6613 17.4654 91.6637 17.3825C91.666 17.3138 91.6684 17.2451 91.6707 17.1764C91.7158 15.9588 91.8271 14.9425 92.0759 13.8884C92.4715 12.204 92.9689 10.6287 93.4996 9.67638C93.5185 9.64085 93.5375 9.59585 93.5825 9.59585C93.6204 9.59585 93.6441 9.62188 93.6488 9.65979C93.6536 9.69295 93.6488 9.74509 93.6465 9.76878C93.5872 10.2947 93.5706 10.8301 93.5683 11.3631C93.5659 12.1756 93.5659 12.9882 93.6109 13.8007C93.6654 14.7649 93.772 15.7029 93.9686 16.4089C94.0658 16.7618 94.1866 17.0722 94.3263 17.347C94.8072 18.2827 95.66 19.0052 96.7616 19.0052C98.0692 19.0052 98.8913 18.0198 99.2324 16.8613C99.3129 16.5865 99.3864 16.3212 99.4385 16.0298C99.4859 15.7314 99.6233 14.7743 99.3887 14.5682ZM45.0596 13.2227C44.9696 16.3165 43.5886 17.5862 42.5604 17.3944C41.312 17.1622 40.9093 15.5087 41.1083 12.5404C41.2883 9.84931 42.2501 8.39715 43.328 8.39241C45.017 8.38768 45.2302 11.3654 45.0596 13.2227ZM56.9564 13.2227C56.8664 16.3165 55.4853 17.5862 54.4572 17.3944C53.2088 17.1622 52.8061 15.5087 53.0051 12.5404C53.2633 8.66958 55.5753 7.35247 56.6224 9.17654C57.063 9.94645 57.0133 11.292 56.9564 13.2227ZM55.8099 26.6664C54.6491 27.287 53.3556 26.3134 53.801 24.7712C54.2179 23.3285 56.2268 21.2628 57.281 20.0665C57.3047 21.6537 57.4255 25.7993 55.8099 26.6664ZM77.5472 13.2227C77.4572 16.3165 76.0761 17.5862 75.048 17.3944C73.7995 17.1622 73.3968 15.5087 73.5958 12.5404C73.7758 9.84931 74.7376 8.39715 75.8155 8.39241C77.5045 8.38768 77.7177 11.3654 77.5472 13.2227Z" fill="#8C8A97"/>
</svg>
