<svg width="14" height="14" viewBox="0 0 14 14" fill="none" xmlns="http://www.w3.org/2000/svg">
<path d="M9.47943 0.59375H4.36368C3.36409 0.594925 2.40577 0.992577 1.69901 1.69946C0.992248 2.40634 0.594757 3.36472 0.59375 4.36432L0.59375 9.48007C0.594925 10.4797 0.992577 11.438 1.69946 12.1447C2.40634 12.8515 3.36472 13.249 4.36432 13.25H9.48007C10.4797 13.2488 11.438 12.8512 12.1447 12.1443C12.8515 11.4374 13.249 10.479 13.25 9.47943V4.36368C13.2488 3.36409 12.8512 2.40577 12.1443 1.69901C11.4374 0.992248 10.479 0.594757 9.47943 0.59375V0.59375ZM11.9771 9.47943C11.9771 9.80743 11.9125 10.1322 11.787 10.4352C11.6614 10.7383 11.4775 11.0136 11.2455 11.2455C11.0136 11.4775 10.7383 11.6614 10.4352 11.787C10.1322 11.9125 9.80743 11.9771 9.47943 11.9771H4.36368C3.70137 11.9769 3.06625 11.7137 2.59799 11.2453C2.12972 10.7769 1.86667 10.1417 1.86667 9.47943V4.36368C1.86683 3.70137 2.13005 3.06625 2.59843 2.59799C3.06682 2.12972 3.70201 1.86667 4.36432 1.86667H9.48007C10.1424 1.86683 10.7775 2.13005 11.2458 2.59843C11.714 3.06682 11.9771 3.70201 11.9771 4.36432V9.48007V9.47943Z" fill="#F77626"/>
<path d="M6.92172 3.64893C6.05415 3.65027 5.22251 3.99554 4.60911 4.60907C3.9957 5.22259 3.65059 6.0543 3.64941 6.92186C3.65042 7.78965 3.99555 8.62162 4.60911 9.23529C5.22267 9.84897 6.05457 10.1943 6.92235 10.1954C7.79025 10.1944 8.62231 9.84921 9.23601 9.23552C9.8497 8.62182 10.1949 7.78976 10.1959 6.92186C10.1946 6.05408 9.84913 5.22225 9.23533 4.60881C8.62154 3.99537 7.78951 3.6504 6.92172 3.64956V3.64893ZM6.92172 8.92252C6.39128 8.92252 5.88257 8.71181 5.50749 8.33673C5.13241 7.96165 4.9217 7.45294 4.9217 6.9225C4.9217 6.39206 5.13241 5.88335 5.50749 5.50827C5.88257 5.13319 6.39128 4.92247 6.92172 4.92247C7.45216 4.92247 7.96087 5.13319 8.33595 5.50827C8.71103 5.88335 8.92174 6.39206 8.92174 6.9225C8.92174 7.45294 8.71103 7.96165 8.33595 8.33673C7.96087 8.71181 7.45216 8.92252 6.92172 8.92252Z" fill="#F77626"/>
<path d="M10.2016 4.45748C10.6347 4.45748 10.9858 4.1064 10.9858 3.67332C10.9858 3.24024 10.6347 2.88916 10.2016 2.88916C9.76856 2.88916 9.41748 3.24024 9.41748 3.67332C9.41748 4.1064 9.76856 4.45748 10.2016 4.45748Z" fill="#F77626"/>
</svg>
