<svg width="23" height="17" viewBox="0 0 23 17" fill="none" xmlns="http://www.w3.org/2000/svg">
<path d="M5.51077 9.85627C5.51332 9.90707 5.5055 9.95786 5.48779 10.0055C5.47009 10.0532 5.44287 10.0968 5.40779 10.1336C5.37271 10.1705 5.33051 10.1998 5.28374 10.2198C5.23698 10.2398 5.18664 10.2501 5.13577 10.25H0.999522C0.830243 10.2503 0.665855 10.1933 0.533091 10.0882C0.400326 9.98322 0.306995 9.83638 0.268272 9.67158C0.24416 9.55879 0.245272 9.44206 0.271527 9.32975C0.297782 9.21743 0.348532 9.11231 0.420147 9.0219C1.08184 8.14438 1.95979 7.45345 2.96827 7.01658C2.52552 6.6129 2.18593 6.109 1.97797 5.54709C1.77 4.98517 1.69971 4.38161 1.77297 3.78694C1.84624 3.19228 2.06092 2.62382 2.39906 2.12919C2.73719 1.63456 3.18893 1.22815 3.71642 0.944004C4.24392 0.659856 4.83183 0.506243 5.4309 0.496028C6.02998 0.485814 6.62278 0.619297 7.15966 0.885297C7.69654 1.1513 8.16186 1.54207 8.51666 2.02489C8.87146 2.50771 9.1054 3.06851 9.1989 3.66033C9.21097 3.73992 9.19671 3.82127 9.1583 3.89201C9.11988 3.96275 9.05941 4.019 8.98608 4.05221C7.94583 4.53312 7.06483 5.30156 6.44706 6.26684C5.82928 7.23213 5.50051 8.35398 5.49952 9.50002C5.49952 9.62002 5.49952 9.73815 5.51077 9.85627ZM22.5733 9.02096C21.9131 8.14446 21.0372 7.45391 20.0308 7.01658C20.4735 6.6129 20.8131 6.109 21.0211 5.54709C21.229 4.98517 21.2993 4.38161 21.2261 3.78694C21.1528 3.19228 20.9381 2.62382 20.6 2.12919C20.2619 1.63456 19.8101 1.22815 19.2826 0.944004C18.7551 0.659856 18.1672 0.506243 17.5681 0.496028C16.9691 0.485814 16.3763 0.619297 15.8394 0.885297C15.3025 1.1513 14.8372 1.54207 14.4824 2.02489C14.1276 2.50771 13.8936 3.06851 13.8001 3.66033C13.7881 3.73992 13.8023 3.82127 13.8407 3.89201C13.8792 3.96275 13.9396 4.019 14.013 4.05221C15.0532 4.53312 15.9342 5.30156 16.552 6.26684C17.1698 7.23213 17.4985 8.35398 17.4995 9.50002C17.4995 9.62002 17.4995 9.73815 17.4883 9.85627C17.4857 9.90707 17.4935 9.95786 17.5112 10.0055C17.529 10.0532 17.5562 10.0968 17.5912 10.1336C17.6263 10.1705 17.6685 10.1998 17.7153 10.2198C17.7621 10.2398 17.8124 10.2501 17.8633 10.25H21.9995C22.1688 10.2503 22.3332 10.1933 22.466 10.0882C22.5987 9.98322 22.692 9.83638 22.7308 9.67158C22.755 9.55859 22.7539 9.44161 22.7275 9.3291C22.7011 9.21659 22.65 9.11134 22.578 9.02096H22.5733ZM14.2295 13.0691C14.9763 12.4972 15.5251 11.7056 15.7987 10.8057C16.0724 9.90582 16.0572 8.94278 15.7553 8.05195C15.4534 7.16112 14.8799 6.3873 14.1154 5.83924C13.351 5.29118 12.434 4.99644 11.4934 4.99644C10.5528 4.99644 9.63586 5.29118 8.87142 5.83924C8.10699 6.3873 7.5335 7.16112 7.23157 8.05195C6.92964 8.94278 6.91444 9.90582 7.18811 10.8057C7.46178 11.7056 8.01057 12.4972 8.75733 13.0691C7.43221 13.6432 6.32571 14.6265 5.59983 15.875C5.534 15.989 5.49935 16.1184 5.49935 16.2501C5.49936 16.3817 5.53403 16.5111 5.59988 16.6251C5.66572 16.7391 5.76042 16.8338 5.87446 16.8996C5.9885 16.9654 6.11786 17.0001 6.24952 17H16.7495C16.8812 17.0001 17.0105 16.9654 17.1246 16.8996C17.2386 16.8338 17.3333 16.7391 17.3992 16.6251C17.465 16.5111 17.4997 16.3817 17.4997 16.2501C17.4997 16.1184 17.465 15.989 17.3992 15.875C16.6718 14.6257 15.5632 13.6423 14.2361 13.0691H14.2295Z" fill="white"/>
</svg>
