<svg width="14" height="13" viewBox="0 0 14 13" fill="none" xmlns="http://www.w3.org/2000/svg">
<path d="M3.2186 1.90683C3.21843 2.25491 3.07999 2.58866 2.83374 2.83467C2.58749 3.08067 2.2536 3.21878 1.90552 3.2186C1.55744 3.21843 1.22369 3.07999 0.977687 2.83374C0.731682 2.58749 0.593576 2.2536 0.59375 1.90552C0.593924 1.55744 0.732364 1.22369 0.978615 0.977687C1.22487 0.731682 1.55876 0.593576 1.90683 0.59375C2.25491 0.593924 2.58866 0.732364 2.83467 0.978615C3.08067 1.22487 3.21878 1.55876 3.2186 1.90683ZM3.25798 4.19046H0.633123V12.4062H3.25798V4.19046ZM7.40525 4.19046H4.79352V12.4062H7.379V8.09493C7.379 5.69319 10.5091 5.47007 10.5091 8.09493V12.4062H13.1012V7.20248C13.1012 3.15364 8.46831 3.30457 7.379 5.2929L7.40525 4.19046Z" fill="#F77626"/>
</svg>
