<svg width="38" height="30" viewBox="0 0 38 30" fill="none" xmlns="http://www.w3.org/2000/svg">
<path d="M36.25 0.625H1.75C1.36875 0.625 1.00312 0.776451 0.733534 1.04603C0.46395 1.31562 0.3125 1.68125 0.3125 2.0625V26.5C0.3125 27.2625 0.615401 27.9938 1.15457 28.5329C1.69373 29.0721 2.425 29.375 3.1875 29.375H34.8125C35.575 29.375 36.3063 29.0721 36.8454 28.5329C37.3846 27.9938 37.6875 27.2625 37.6875 26.5V2.0625C37.6875 1.68125 37.536 1.31562 37.2665 1.04603C36.9969 0.776451 36.6312 0.625 36.25 0.625ZM34.8125 26.5H3.1875V5.33102L18.0279 18.9352C18.2931 19.1786 18.64 19.3137 19 19.3137C19.36 19.3137 19.7069 19.1786 19.9721 18.9352L34.8125 5.33102V26.5Z" fill="white"/>
</svg>
