<svg width="73" height="53" viewBox="0 0 73 53" fill="none" xmlns="http://www.w3.org/2000/svg">
<path d="M17.4599 14.34V23.832H29.8867L17.3709 38.6603H47.78V29.1683H35.3532L47.869 14.34H17.4599Z" fill="#EE782F"/>
<path d="M10.6579 5.06569C10.6579 7.86308 8.36743 10.1311 5.54202 10.1311C2.71686 10.1311 0.426424 7.86308 0.426424 5.06569C0.426424 2.26798 2.71686 0 5.54202 0C8.36743 0 10.6579 2.26798 10.6579 5.06569Z" fill="#EE782F"/>
<path d="M0 14.34H11.0839V38.6603H0V14.34Z" fill="#EE782F"/>
<path d="M54.2447 14.446V38.7662H61.9158L73 14.446H54.2447Z" fill="#EE782F"/>
<path d="M62.771 47.9346C62.771 50.732 60.4806 53 57.6551 53C54.83 53 52.5395 50.732 52.5395 47.9346C52.5395 45.1369 54.83 42.8689 57.6551 42.8689C60.4806 42.8689 62.771 45.1369 62.771 47.9346Z" fill="#EE782F"/>
</svg>
