<svg width="98" height="19" viewBox="0 0 98 19" fill="none" xmlns="http://www.w3.org/2000/svg">
<path d="M86.1904 0.763498C87.4464 -0.0539465 89.0691 -0.130048 90.4846 0.259445C90.4969 1.10062 90.4863 1.94261 90.4904 2.7846C89.8178 2.48839 89.0265 2.29528 88.3187 2.58577C87.7574 2.80833 87.4235 3.38439 87.336 3.96045C87.2304 4.69116 87.2992 5.43168 87.2812 6.16648C88.718 6.16976 90.1549 6.1673 91.5918 6.16812C91.6024 5.2353 91.5803 4.30166 91.604 3.36884C92.581 3.09063 93.5474 2.77888 94.5195 2.48594C94.5277 3.71497 94.508 4.94482 94.5301 6.17467C95.5014 6.16076 96.4735 6.1714 97.4456 6.16812V8.56072C96.4702 8.52063 95.4941 8.55009 94.5187 8.54681C94.5228 9.92231 94.5195 11.2978 94.5203 12.6741C94.5359 13.4359 94.4794 14.2018 94.5686 14.9612C94.6226 15.4088 94.7854 15.9046 95.2052 16.1362C95.9081 16.5298 96.8 16.3579 97.4456 15.9259V18.3422C96.6036 18.708 95.6626 18.8193 94.7519 18.7546C93.8878 18.6908 92.9926 18.3766 92.4288 17.6893C91.7775 16.9127 91.6098 15.8613 91.5967 14.8777C91.5893 12.7666 91.5975 10.6555 91.5934 8.54354C90.1557 8.54272 88.718 8.5419 87.2812 8.54436C87.2795 11.8575 87.2803 15.1706 87.2803 18.4838C86.2984 18.4838 85.3157 18.4838 84.3338 18.4838C84.3338 15.1715 84.3297 11.86 84.3354 8.54763C83.6522 8.53454 82.9681 8.5509 82.2848 8.53699C82.2873 7.75064 82.2906 6.96347 82.2832 6.1763C82.9632 6.16076 83.644 6.1673 84.3256 6.17221C84.3755 5.12647 84.2159 4.05046 84.5285 3.03172C84.7928 2.11199 85.3803 1.28228 86.1904 0.763498Z" fill="#8C8A97"/>
<path d="M23.1039 0.935285C23.6979 0.845276 24.3411 1.04821 24.7347 1.51298C25.1962 2.02194 25.2813 2.83202 24.9392 3.4269C24.5612 4.09787 23.7151 4.40963 22.9779 4.24843C22.2128 4.11096 21.5754 3.39989 21.6097 2.607C21.5876 1.77237 22.2856 1.02857 23.1039 0.935285Z" fill="#8C8A97"/>
<path d="M0.522429 1.30025C1.95112 1.30025 3.37898 1.30025 4.80767 1.30025C6.14144 4.68704 7.48502 8.07056 8.82042 11.4573C9.16164 12.3042 9.48077 13.161 9.83835 14.0013C11.5542 9.76927 13.2947 5.54785 14.9975 1.31007C16.3714 1.28798 17.746 1.30516 19.1207 1.30188C19.1174 7.0289 19.1191 12.7559 19.1199 18.483C18.1282 18.4805 17.1373 18.4911 16.1463 18.4772C16.157 14.2509 16.1455 10.0246 16.1512 5.79742C16.1529 5.60758 16.1463 5.41775 16.1332 5.22791C16.0752 5.31628 16.0236 5.40793 15.9786 5.50285C14.2758 9.829 12.5402 14.1429 10.8473 18.4731C10.1419 18.4985 9.43576 18.4748 8.7296 18.4862C6.97279 14.1601 5.23808 9.82409 3.49027 5.49467C3.44445 5.40466 3.39535 5.3171 3.34216 5.23282C3.30616 7.08455 3.33644 8.93791 3.32662 10.7896C3.32744 13.3541 3.32498 15.9185 3.32744 18.483C2.39216 18.4854 1.45689 18.483 0.522429 18.4838C0.521611 12.7559 0.520793 7.02809 0.522429 1.30025Z" fill="#8C8A97"/>
<path d="M31.2134 6.1567C32.6355 5.75166 34.169 5.76803 35.5903 6.1698C35.8832 6.25162 36.1672 6.36536 36.4306 6.52001C36.4143 7.45856 36.4306 8.39792 36.4216 9.33729C35.4716 8.61149 34.2663 8.15163 33.0586 8.30382C32.0996 8.39056 31.1848 8.88806 30.6111 9.66296C29.8739 10.6236 29.7037 11.8993 29.8305 13.0743C29.9254 13.994 30.3059 14.9129 31.0211 15.5225C31.7641 16.1829 32.8057 16.4169 33.7778 16.3433C34.7385 16.2328 35.6451 15.8261 36.4216 15.2582C36.4298 16.1477 36.4175 17.0371 36.4282 17.9266C35.2237 18.6434 33.7795 18.8283 32.4007 18.7604C30.99 18.6859 29.5834 18.1516 28.5622 17.1599C27.4527 16.0904 26.8504 14.5652 26.7792 13.0375C26.7072 11.4492 27.0304 9.79225 27.9444 8.46584C28.7103 7.33418 29.9083 6.5331 31.2134 6.1567Z" fill="#8C8A97"/>
<path d="M63.3997 5.96924C64.7621 5.72949 66.1883 5.90542 67.4779 6.39392C67.4796 7.29728 67.4779 8.19982 67.4787 9.10237C66.5778 8.48294 65.4773 8.14991 64.3841 8.18837C63.8334 8.20965 63.2279 8.44285 62.9767 8.96654C62.777 9.4845 62.9153 10.1637 63.4038 10.4738C64.2392 11.0327 65.2359 11.2699 66.1016 11.7707C66.7832 12.1537 67.4444 12.6544 67.7897 13.3762C68.4386 14.7279 68.1636 16.5142 67.023 17.5223C65.9339 18.5402 64.3653 18.8217 62.9227 18.7677C61.8982 18.7014 60.8688 18.4993 59.927 18.0803C59.9311 17.1303 59.9213 16.1812 59.9319 15.232C60.724 15.8072 61.638 16.2188 62.6052 16.3857C63.2786 16.4954 64.011 16.5003 64.6386 16.1992C65.2392 15.9005 65.3472 15.047 64.9904 14.525C64.6565 14.1224 64.1664 13.9007 63.7041 13.683C62.8359 13.2927 61.9236 12.9662 61.1609 12.3811C60.625 11.963 60.2191 11.3739 60.0604 10.7094C59.8247 9.72998 59.8984 8.62614 60.4679 7.77024C61.1184 6.77278 62.2484 6.17463 63.3997 5.96924Z" fill="#8C8A97"/>
<path d="M43.0181 6.35705C43.8315 5.86854 44.8649 5.82763 45.7528 6.1263C45.7487 7.10903 45.7528 8.09176 45.7503 9.0745C45.1693 8.6981 44.4444 8.5369 43.7587 8.60645C42.9224 8.70137 42.2596 9.3437 41.9159 10.0801C41.5428 10.8599 41.4724 11.742 41.4962 12.5947C41.4962 14.5577 41.497 16.5207 41.4962 18.4837C40.5273 18.4837 39.5593 18.4837 38.5913 18.4837C38.5889 14.3809 38.5946 10.2773 38.5889 6.17457C39.5585 6.1623 40.5282 6.16721 41.4978 6.17212C41.4937 6.87664 41.4978 7.58117 41.4953 8.28651C41.8104 7.5198 42.2792 6.77518 43.0181 6.35705Z" fill="#8C8A97"/>
<path d="M21.877 6.17225C22.854 6.16816 23.8318 6.15834 24.8088 6.17716C24.7973 10.2791 24.808 14.3819 24.8039 18.4838C23.8285 18.4838 22.8531 18.4838 21.8786 18.4838C21.8761 14.3802 21.8794 10.2767 21.877 6.17225Z" fill="#8C8A97"/>
<path fill-rule="evenodd" clip-rule="evenodd" d="M55.3943 6.44219C54.0818 5.84486 52.5901 5.76467 51.1762 5.94469C49.691 6.13207 48.2452 6.83087 47.3025 8.01489C46.4417 9.07209 46.0227 10.4304 45.9426 11.7781C45.8239 13.3663 46.089 15.052 47.0219 16.3775C47.8164 17.5215 49.0708 18.3078 50.4258 18.5975C51.5583 18.8356 52.7431 18.8364 53.8756 18.6008C55.2004 18.3283 56.4376 17.5951 57.2583 16.5134C58.0602 15.4946 58.4628 14.21 58.5536 12.9277C58.6461 11.6144 58.5135 10.2545 57.9678 9.04345C57.4563 7.90606 56.5333 6.95606 55.3943 6.44219ZM54.5195 9.11962C53.8829 8.47565 52.9402 8.22526 52.0549 8.28335C51.3504 8.32263 50.6385 8.56075 50.1164 9.04843C49.3963 9.70059 49.0674 10.6727 48.9782 11.6178C48.88 12.657 48.9512 13.7526 49.4258 14.7002C49.7948 15.4358 50.4732 16.0135 51.2726 16.2238C52.0582 16.4275 52.9132 16.4103 53.6742 16.1182C54.3247 15.8646 54.8402 15.3294 55.1217 14.6961C55.5472 13.7567 55.589 12.7003 55.5366 11.6865C55.4638 10.7602 55.2003 9.78896 54.5195 9.11962Z" fill="#8C8A97"/>
<path fill-rule="evenodd" clip-rule="evenodd" d="M79.0346 6.53472C77.6926 5.8572 76.1314 5.75819 74.6609 5.94066C73.4753 6.09286 72.3101 6.54291 71.4051 7.33744C70.3004 8.28908 69.6524 9.68831 69.4617 11.1195C69.28 12.5506 69.3414 14.0578 69.9248 15.3973C70.4845 16.7115 71.5892 17.7785 72.918 18.3013C74.2297 18.8177 75.6879 18.8758 77.0683 18.6524C78.4798 18.4192 79.8168 17.677 80.6907 16.5347C81.6244 15.3548 82.0261 13.8279 82.0237 12.3403C82.0441 11.3445 81.9197 10.3347 81.5654 9.39946C81.1121 8.17698 80.2047 7.11978 79.0346 6.53472ZM77.817 8.9821C77.1772 8.41996 76.2885 8.22766 75.4564 8.28576C74.6414 8.33158 73.8329 8.68262 73.306 9.31759C72.7283 9.99757 72.4803 10.8952 72.4132 11.7699C72.3437 12.6733 72.4132 13.6086 72.7626 14.453C73.0531 15.1616 73.6046 15.7778 74.3165 16.0789C74.976 16.3628 75.719 16.4136 76.4243 16.308C77.0814 16.2115 77.718 15.8972 78.146 15.3817C78.5707 14.8687 78.7949 14.2223 78.9078 13.5742C79.0502 12.7044 79.0518 11.8084 78.8832 10.9427C78.7335 10.2046 78.407 9.47143 77.817 8.9821Z" fill="#8C8A97"/>
</svg>
