<svg width="18" height="18" viewBox="0 0 18 18" fill="none" xmlns="http://www.w3.org/2000/svg">
<path d="M3.75 12H5.25" stroke="#F77626" stroke-width="1.5" stroke-linecap="round" stroke-linejoin="round"/>
<path d="M12.75 6H14.25" stroke="#F77626" stroke-width="1.5" stroke-linecap="round" stroke-linejoin="round"/>
<path fill-rule="evenodd" clip-rule="evenodd" d="M15 14.25H3C2.17125 14.25 1.5 13.5788 1.5 12.75V5.25C1.5 4.42125 2.17125 3.75 3 3.75H15C15.8288 3.75 16.5 4.42125 16.5 5.25V12.75C16.5 13.5788 15.8288 14.25 15 14.25Z" stroke="#F77626" stroke-width="1.5" stroke-linecap="round" stroke-linejoin="round"/>
<path d="M10.3258 7.67417C11.0581 8.40641 11.0581 9.59359 10.3258 10.3258C9.59359 11.0581 8.40641 11.0581 7.67418 10.3258C6.94194 9.59359 6.94194 8.40641 7.67418 7.67417C8.40641 6.94194 9.59359 6.94194 10.3258 7.67417" stroke="#F77626" stroke-width="1.5" stroke-linecap="round" stroke-linejoin="round"/>
</svg>
