<svg width="18" height="18" viewBox="0 0 18 18" fill="none" xmlns="http://www.w3.org/2000/svg">
<path fill-rule="evenodd" clip-rule="evenodd" d="M4.33186 15.4352H2.94395C2.56089 15.4352 2.25 15.1243 2.25 14.7412V10.5775C2.25 10.1944 2.56089 9.88354 2.94395 9.88354H4.33186C4.71492 9.88354 5.02581 10.1944 5.02581 10.5775V14.7412C5.02581 15.1243 4.71492 15.4352 4.33186 15.4352Z" stroke="#2058E8" stroke-width="1.5" stroke-linecap="round" stroke-linejoin="round"/>
<path d="M9.18911 12.6593H10.8081C11.1086 12.6593 11.4007 12.5621 11.6409 12.3817L13.3174 11.1243C13.7359 10.8106 14.3216 10.8522 14.6915 11.2221V11.2221C15.1023 11.6329 15.1023 12.2984 14.6915 12.7086L13.2529 14.1471C12.8657 14.5343 12.3716 14.7987 11.8345 14.9063L9.80118 15.313C9.39799 15.3935 8.98231 15.3837 8.58329 15.2838L6.74431 14.8244C6.52433 14.7689 6.2988 14.7411 6.07187 14.7411H5.02539" stroke="#2058E8" stroke-width="1.5" stroke-linecap="round" stroke-linejoin="round"/>
<path d="M9.18911 12.6594H10.2196C10.8005 12.6594 11.271 12.1889 11.271 11.608V11.3978C11.271 10.9155 10.9427 10.4949 10.475 10.3783L8.88447 9.9807C8.62562 9.91616 8.36053 9.88354 8.09405 9.88354V9.88354C7.45076 9.88354 6.82134 10.0737 6.2863 10.4311L5.02539 11.2715" stroke="#2058E8" stroke-width="1.5" stroke-linecap="round" stroke-linejoin="round"/>
<path fill-rule="evenodd" clip-rule="evenodd" d="M7.57088 7.80163H13.5854C14.2238 7.80163 14.7415 7.28394 14.7415 6.64481V3.40682C14.7415 2.76769 14.2238 2.25 13.5847 2.25H7.57019C6.93175 2.25 6.41406 2.76769 6.41406 3.40682V6.6455C6.41406 7.28394 6.93175 7.80163 7.57088 7.80163Z" fill="#2058E8" stroke="#2058E8" stroke-width="1.5" stroke-linecap="round" stroke-linejoin="round"/>
<path d="M11.3137 4.28958C11.7204 4.69624 11.7204 5.35619 11.3137 5.76215C10.907 6.16811 10.2471 6.16881 9.84113 5.76215C9.43447 5.35549 9.43447 4.69554 9.84113 4.28958C10.2478 3.88362 10.907 3.88362 11.3137 4.28958" stroke="#E2ECF7" stroke-width="1.5" stroke-linecap="round" stroke-linejoin="round"/>
</svg>
