<svg width="20" height="21" viewBox="0 0 20 21" fill="none" xmlns="http://www.w3.org/2000/svg">
<path fill-rule="evenodd" clip-rule="evenodd" d="M13.3333 18H6.66667C5.74583 18 5 17.2542 5 16.3333V4.66667C5 3.74583 5.74583 3 6.66667 3H13.3333C14.2542 3 15 3.74583 15 4.66667V16.3333C15 17.2542 14.2542 18 13.3333 18Z" stroke="#F77626" stroke-width="1.5" stroke-linecap="round" stroke-linejoin="round"/>
<path opacity="0.5" d="M9.99884 14.8751C9.88384 14.8751 9.79051 14.9684 9.79134 15.0834C9.79134 15.1984 9.88468 15.2917 9.99968 15.2917C10.1147 15.2917 10.208 15.1984 10.208 15.0834C10.208 14.9684 10.1147 14.8751 9.99884 14.8751" stroke="#F77626" stroke-width="1.5" stroke-linecap="round" stroke-linejoin="round"/>
<path opacity="0.5" d="M8.95801 5.49992H11.0413" stroke="#F77626" stroke-width="1.5" stroke-linecap="round" stroke-linejoin="round"/>
</svg>
