<svg width="17" height="16" viewBox="0 0 17 16" fill="none" xmlns="http://www.w3.org/2000/svg">
<path d="M16.4777 6.96667V0H10.1778V5.5C10.1778 8.47778 10.5151 10.6222 11.1897 11.9333C12.1255 13.7333 13.5835 15.0889 15.5638 16L17 13.6333C15.8249 13.1444 14.9544 12.3778 14.3886 11.3333C13.8011 10.2667 13.4747 8.81111 13.4094 6.96667H16.4777ZM6.35872 6.96667V0H0.0588264V5.5C0.0588264 8.47778 0.396126 10.6222 1.07073 11.9333C2.00646 13.7333 3.46447 15.0889 5.44475 16L6.88099 13.6333C5.70588 13.1444 4.83543 12.3778 4.26964 11.3333C3.68208 10.2667 3.35566 8.81111 3.29038 6.96667H6.35872Z" fill="#F77626"/>
</svg>
