<svg width="89" height="26" viewBox="0 0 89 26" fill="none" xmlns="http://www.w3.org/2000/svg">
<path d="M7.11864 2.16749C7.74089 2.16749 10.4584 1.96575 13.7641 4.45719C13.9124 4.569 13.9415 4.78047 13.8346 4.93117L12.2474 7.15524C12.1331 7.31566 11.9119 7.34726 11.7564 7.22815C11.4647 7.0021 10.9664 6.6448 10.383 6.34582C9.4448 5.86698 8.19786 5.46106 7.12107 5.46106C6.04428 5.46106 4.31607 5.8135 4.31607 7.50768C4.31607 8.87129 5.52169 9.38416 9.24062 10.3005C11.6616 10.9301 14.486 12.0919 14.486 15.8011C14.486 19.2138 11.6494 21.365 7.73847 21.365C5.38071 21.365 2.14792 20.4705 0.0964267 18.402C-0.0275377 18.2756 -0.0323961 18.0738 0.0842763 17.9401L1.86839 15.8376C1.99478 15.6893 2.22083 15.6747 2.36424 15.8084C3.0424 16.4428 5.02583 18.0495 7.72874 18.0495C10.9494 18.0495 10.8206 16.1098 10.8206 15.8206C10.8206 15.2032 10.3733 14.3379 8.78365 13.8906C7.19399 13.4434 3.20769 12.6972 1.71526 10.9592C0.798892 9.87273 0.670062 8.66711 0.670062 7.76047C0.670062 5.71628 1.99235 2.16749 7.11864 2.16749Z" fill="#8C8A97"/>
<path d="M23.7296 6.61072C20.8589 6.61072 19.3082 8.72297 19.3082 8.72297V7.25971C19.3082 7.07011 19.155 6.91455 18.963 6.91455H16.017C15.8274 6.91455 15.6719 7.06768 15.6719 7.25971V24.9477C15.6719 25.1373 15.825 25.2929 16.017 25.2929H18.9752C19.1648 25.2929 19.3203 25.1397 19.3203 24.9477V19.4374C19.3203 19.4374 20.7593 21.3673 23.8851 21.3673C26.3644 21.3673 30.3604 19.3766 30.3604 14.0486C30.358 8.72054 26.6002 6.61072 23.7296 6.61072ZM22.9639 18.222C20.9586 18.222 19.2571 16.4793 19.2571 13.9878C19.2571 12.4686 20.2099 9.81434 22.9226 9.81434C25.6352 9.81434 26.6707 12.002 26.6707 13.9878C26.6707 15.9737 25.5769 18.222 22.9639 18.222Z" fill="#8C8A97"/>
<path d="M38.8653 6.61072C34.2275 6.61072 31.3496 10.4244 31.3496 14.0194C31.3496 17.9595 34.4074 21.4038 38.8944 21.4038C43.3814 21.4038 46.4392 17.8599 46.4392 14.0194C46.4417 10.1789 43.503 6.61072 38.8653 6.61072ZM38.8944 18.222C37.0009 18.222 34.9349 16.6372 34.9349 14.0073C34.9349 11.3773 36.7992 9.81678 38.8944 9.81678C40.5035 9.81678 42.7932 11.1488 42.7932 14.0073C42.7932 16.8657 40.7903 18.222 38.8944 18.222Z" fill="#8C8A97"/>
<path d="M55.7178 9.73414V7.22326C55.7178 7.03367 55.5647 6.8781 55.3727 6.8781H52.011V3.47516C52.011 3.28557 51.8579 3.13 51.6659 3.13H48.7685C48.5789 3.13 48.4234 3.28314 48.4234 3.47516V6.8781H47.0063C46.8167 6.8781 46.6611 7.03124 46.6611 7.22326V9.73414C46.6611 9.92374 46.8143 10.0793 47.0063 10.0793H48.4234C48.4234 10.0793 48.4234 15.5896 48.4234 17.189C48.4234 18.7884 49.1526 21.3212 52.3319 21.3212C53.7952 21.3212 55.0445 20.8083 55.5161 20.5895C55.6376 20.5336 55.7154 20.4121 55.7154 20.276V17.8161C55.7154 17.5949 55.4675 17.4613 55.2852 17.5877C54.9522 17.8161 54.4101 18.0592 53.608 18.0592C52.0888 18.0592 52.0086 17.0262 52.0086 16.297C52.0086 15.5678 52.0086 10.0793 52.0086 10.0793H55.3702C55.5647 10.0793 55.7178 9.92374 55.7178 9.73414Z" fill="#8C8A97"/>
<path d="M59.0111 5.15467C60.2475 5.15467 61.2498 4.15239 61.2498 2.91602C61.2498 1.67965 60.2475 0.677368 59.0111 0.677368C57.7747 0.677368 56.7725 1.67965 56.7725 2.91602C56.7725 4.15239 57.7747 5.15467 59.0111 5.15467Z" fill="#8C8A97"/>
<path d="M60.4573 21.0781H57.5551C57.3655 21.0781 57.21 20.9249 57.21 20.7329V7.22321C57.21 7.03362 57.3631 6.87805 57.5551 6.87805H60.4573C60.6469 6.87805 60.8025 7.03119 60.8025 7.22321V20.7329C60.8025 20.9225 60.6469 21.0781 60.4573 21.0781Z" fill="#8C8A97"/>
<path d="M64.0035 10.0792H62.6059C62.4163 10.0792 62.2607 9.92607 62.2607 9.73404V7.22316C62.2607 7.03357 62.4139 6.878 62.6059 6.878H64.0035C64.0035 6.878 64.0035 6.57417 64.0035 5.9665C64.0035 5.35883 64.1056 1.53052 68.3982 1.53052C70.525 1.53052 71.2178 2.00693 71.2178 2.00693C71.2178 2.00693 71.2178 4.33065 71.2178 4.58831C71.2178 4.84596 71.1254 5.05986 70.8532 4.95291C70.5809 4.84596 69.774 4.63449 69.1225 4.63449C68.4711 4.63449 67.5718 5.01367 67.5718 6.16824C67.5718 6.57903 67.5718 6.878 67.5718 6.878H72.8342C72.9776 6.878 73.104 6.96551 73.155 7.09919L76.8375 16.6226L80.1456 7.13079C80.1943 6.99224 80.3255 6.89988 80.4714 6.89988H83.7066C83.8597 6.89988 83.9667 7.05301 83.9108 7.19399C83.1524 9.15797 78.8525 20.2832 78.2983 21.6954C77.6907 23.2462 76.6576 25.356 73.6946 25.356C71.9762 25.356 70.8678 24.7799 70.4059 24.4785C70.2625 24.3837 70.209 24.199 70.282 24.0434L71.3369 21.7805C71.3806 21.6857 71.4973 21.6492 71.5873 21.7051C71.8887 21.8898 72.5765 22.2496 73.3762 22.2496C74.5527 22.2496 75.0777 20.8592 75.0777 20.8592L70.5664 10.0792H67.5961V20.7596C67.5961 20.9492 67.4429 21.1047 67.2509 21.1047H64.339C64.1494 21.1047 63.9938 20.9492 63.9938 20.7596L64.0035 10.0792Z" fill="#8C8A97"/>
<path d="M85.6807 7.86255H86.7575C87.0564 7.86255 87.2873 7.94763 87.4429 8.10076C87.5742 8.23201 87.6447 8.41674 87.6447 8.63793V8.64523C87.6447 9.02441 87.4405 9.26262 87.1415 9.37443L87.7151 10.2154H87.1099L86.6068 9.46193H86.5995H86.1984V10.2154H85.6807V7.86255ZM86.7234 9.00496C86.9762 9.00496 87.1196 8.87128 87.1196 8.67196V8.66467C87.1196 8.44348 86.9641 8.32924 86.7137 8.32924H86.1984V9.00496H86.7234Z" fill="#8C8A97"/>
<path d="M86.6191 11.314C85.394 11.314 84.3975 10.3174 84.3975 9.09236C84.3975 7.8673 85.394 6.87073 86.6191 6.87073C87.8442 6.87073 88.8407 7.8673 88.8407 9.09236C88.8407 10.3174 87.8417 11.314 86.6191 11.314ZM86.6191 7.11623C85.5277 7.11623 84.6405 8.00342 84.6405 9.0948C84.6405 10.1862 85.5277 11.0734 86.6191 11.0734C87.7105 11.0734 88.5977 10.1862 88.5977 9.0948C88.5977 8.00342 87.708 7.11623 86.6191 7.11623Z" fill="#8C8A97"/>
</svg>
