<svg width="17" height="15" viewBox="0 0 17 15" fill="none" xmlns="http://www.w3.org/2000/svg">
<path d="M14.2847 3.92852V3.64281C14.284 3.02371 14.1004 2.41862 13.757 1.90348C13.4136 1.38833 12.9258 0.986078 12.3546 0.747194C11.7834 0.508309 11.1545 0.443436 10.5466 0.560715C9.93867 0.677994 9.37896 0.972201 8.93766 1.40642C8.91156 1.43273 8.89092 1.46394 8.87695 1.49827C8.86297 1.5326 8.85593 1.56935 8.85623 1.60641V7.94346C8.85637 7.99497 8.87043 8.04549 8.89693 8.08967C8.92343 8.13384 8.96137 8.17003 9.00675 8.1944C9.05214 8.21878 9.10326 8.23043 9.15472 8.22813C9.20618 8.22582 9.25606 8.20965 9.29908 8.18132C9.84243 7.83292 10.4736 7.64615 11.1191 7.64275C11.2685 7.63998 11.4133 7.69455 11.5237 7.79526C11.6341 7.89596 11.7017 8.03514 11.7126 8.18417C11.7167 8.2617 11.7049 8.33924 11.678 8.41207C11.6512 8.4849 11.6097 8.55148 11.5562 8.60776C11.5028 8.66404 11.4384 8.70884 11.367 8.73941C11.2957 8.76999 11.2188 8.7857 11.1412 8.78559C10.535 8.78559 9.95363 9.02641 9.52498 9.45505C9.09633 9.8837 8.85552 10.4651 8.85552 11.0713V13.4912C8.85546 13.534 8.86499 13.5762 8.88341 13.6148C8.90183 13.6533 8.92867 13.6873 8.96195 13.7141C9.36743 14.0497 9.84485 14.2872 10.3571 14.4083C10.8693 14.5293 11.4026 14.5306 11.9154 14.412C12.4282 14.2934 12.9067 14.0582 13.3138 13.7246C13.7209 13.3909 14.0456 12.9679 14.2626 12.4884C14.2844 12.4402 14.2924 12.3868 14.2857 12.3343C14.279 12.2818 14.2579 12.2322 14.2246 12.191C14.1914 12.1498 14.1473 12.1187 14.0974 12.1011C14.0475 12.0835 13.9936 12.0801 13.9419 12.0913C13.5857 12.1729 13.2215 12.2141 12.8562 12.2141H12.304C12.1566 12.2159 12.014 12.1619 11.9047 12.063C11.7954 11.964 11.7276 11.8274 11.7148 11.6806C11.7096 11.6024 11.7205 11.524 11.7469 11.4502C11.7733 11.3765 11.8145 11.3089 11.8681 11.2518C11.9217 11.1947 11.9865 11.1491 12.0584 11.1181C12.1303 11.087 12.2079 11.0711 12.2862 11.0713H12.8576C13.4546 11.0722 14.0429 10.928 14.5719 10.6513C15.1983 10.325 15.7187 9.82692 16.0721 9.21538C16.4255 8.60383 16.5972 7.90421 16.567 7.19855C16.5369 6.49289 16.3062 5.81046 15.9019 5.23127C15.4977 4.65209 14.9367 4.20017 14.2847 3.92852ZM13.4276 6.49991H13.1419C12.4599 6.49991 11.8059 6.229 11.3236 5.74677C10.8414 5.26454 10.5705 4.6105 10.5705 3.92852V3.64281C10.5705 3.49126 10.6307 3.34592 10.7379 3.23876C10.845 3.13159 10.9904 3.07139 11.1419 3.07139C11.2935 3.07139 11.4388 3.13159 11.546 3.23876C11.6531 3.34592 11.7133 3.49126 11.7133 3.64281V3.92852C11.7133 4.11612 11.7503 4.30188 11.8221 4.4752C11.8939 4.64852 11.9991 4.80601 12.1317 4.93866C12.3997 5.20656 12.763 5.35707 13.1419 5.35707H13.4276C13.5791 5.35707 13.7245 5.41727 13.8317 5.52444C13.9388 5.6316 13.999 5.77694 13.999 5.92849C13.999 6.08004 13.9388 6.22538 13.8317 6.33255C13.7245 6.43971 13.5791 6.49991 13.4276 6.49991ZM5.42771 0.5C4.59448 0.500946 3.79564 0.832366 3.20645 1.42155C2.61727 2.01074 2.28585 2.80958 2.2849 3.64281V3.92852C1.633 4.20032 1.07211 4.65236 0.66801 5.23162C0.263906 5.81088 0.03334 6.49336 0.00335054 7.19901C-0.026639 7.90466 0.145191 8.60424 0.498691 9.2157C0.85219 9.82716 1.3727 10.3252 1.99919 10.6513C2.52816 10.928 3.11645 11.0722 3.71345 11.0713H4.26559C4.41325 11.0691 4.55626 11.1229 4.66586 11.2219C4.77545 11.3209 4.84349 11.4577 4.85629 11.6048C4.86148 11.683 4.85055 11.7614 4.82416 11.8352C4.79778 11.9089 4.75651 11.9765 4.70292 12.0336C4.64934 12.0907 4.58457 12.1362 4.51266 12.1673C4.44074 12.1983 4.36321 12.2143 4.28487 12.2141H3.71345C3.3478 12.2143 2.98332 12.1728 2.62704 12.0905C2.57533 12.0793 2.52151 12.0826 2.47158 12.1001C2.42164 12.1176 2.37755 12.1486 2.34422 12.1897C2.31089 12.2309 2.28963 12.2804 2.28282 12.3329C2.276 12.3854 2.28389 12.4387 2.30561 12.487C2.52256 12.9666 2.84721 13.3898 3.2543 13.7235C3.6614 14.0573 4.13998 14.2927 4.65285 14.4114C5.16572 14.5301 5.69906 14.529 6.21141 14.408C6.72377 14.2871 7.20132 14.0496 7.60697 13.7141C7.64025 13.6873 7.66708 13.6533 7.6855 13.6148C7.70392 13.5762 7.71345 13.534 7.71339 13.4912V11.0713C7.71339 10.4651 7.47258 9.8837 7.04393 9.45505C6.61528 9.02641 6.03391 8.78559 5.42771 8.78559C5.35008 8.7857 5.27324 8.76999 5.20188 8.73941C5.13052 8.70884 5.06614 8.66404 5.01267 8.60776C4.9592 8.55148 4.91775 8.4849 4.89087 8.41207C4.86398 8.33924 4.85222 8.2617 4.85629 8.18417C4.86723 8.03502 4.93496 7.89573 5.04551 7.79501C5.15607 7.69428 5.30104 7.63979 5.45057 7.64275C6.09601 7.64615 6.72719 7.83292 7.27054 8.18132C7.31356 8.20965 7.36344 8.22582 7.41491 8.22813C7.46637 8.23043 7.51749 8.21878 7.56287 8.1944C7.60825 8.17003 7.6462 8.13384 7.6727 8.08967C7.6992 8.04549 7.71326 7.99497 7.71339 7.94346V1.60641C7.71365 1.53141 7.6844 1.45932 7.63197 1.4057C7.04525 0.825156 6.2531 0.499669 5.42771 0.5ZM5.99913 3.92852C5.99913 4.6105 5.72822 5.26454 5.24599 5.74677C4.76376 6.229 4.10972 6.49991 3.42774 6.49991H3.14203C2.99048 6.49991 2.84514 6.43971 2.73798 6.33255C2.63081 6.22538 2.57061 6.08004 2.57061 5.92849C2.57061 5.77694 2.63081 5.6316 2.73798 5.52444C2.84514 5.41727 2.99048 5.35707 3.14203 5.35707H3.42774C3.61534 5.35707 3.8011 5.32012 3.97442 5.24833C4.14774 5.17654 4.30523 5.07131 4.43788 4.93866C4.57053 4.80601 4.67576 4.64852 4.74755 4.4752C4.81934 4.30188 4.85629 4.11612 4.85629 3.92852V3.64281C4.85629 3.49126 4.9165 3.34592 5.02366 3.23876C5.13082 3.13159 5.27616 3.07139 5.42771 3.07139C5.57926 3.07139 5.72461 3.13159 5.83177 3.23876C5.93893 3.34592 5.99913 3.49126 5.99913 3.64281V3.92852Z" fill="#FFE68C"/>
</svg>
