<svg width="36" height="26" viewBox="0 0 36 26" fill="none" xmlns="http://www.w3.org/2000/svg">
<path d="M11.8 4.2C13.4 5.8 13.4 8.2 11.8 9.8C10.2 11.4 7.8 11.4 6.2 9.8C4.6 8.2 4.6 5.8 6.2 4.2C7.8 2.6 10.2 2.6 11.8 4.2" stroke="#F77626" stroke-width="1.5" stroke-linecap="round" stroke-linejoin="round"/>
<path d="M29.6001 2.39999C31.6001 4.39999 31.6001 7.59999 29.6001 9.39999C27.6001 11.2 24.4001 11.4 22.6001 9.39999C20.8001 7.39999 20.6001 4.19999 22.6001 2.39999C24.4001 0.599988 27.6001 0.599988 29.6001 2.39999" stroke="#F77626" stroke-width="1.5" stroke-linecap="round" stroke-linejoin="round"/>
<path d="M35 25V23C35 19.6 32.4 17 29 17H23C19.6 17 17 19.6 17 23V25" stroke="#F77626" stroke-width="1.5" stroke-linecap="round" stroke-linejoin="round"/>
<path d="M11 17H7C3.6 17 1 19.6 1 23V25" stroke="#F77626" stroke-width="1.5" stroke-linecap="round" stroke-linejoin="round"/>
</svg>
