<svg width="15" height="13" viewBox="0 0 15 13" fill="none" xmlns="http://www.w3.org/2000/svg">
<path fill-rule="evenodd" clip-rule="evenodd" d="M13.4894 2.98311C13.3463 2.35561 12.9225 1.86061 12.3837 1.69061C11.4094 1.38623 7.5 1.38623 7.5 1.38623C7.5 1.38623 3.5925 1.38623 2.61625 1.69061C2.07938 1.85811 1.65563 2.35311 1.51062 2.98311C1.25 4.12186 1.25 6.49998 1.25 6.49998C1.25 6.49998 1.25 8.87811 1.51062 10.0169C1.65375 10.6444 2.0775 11.1394 2.61625 11.3094C3.5925 11.6137 7.5 11.6137 7.5 11.6137C7.5 11.6137 11.4094 11.6137 12.3837 11.3094C12.9206 11.1419 13.3444 10.6469 13.4894 10.0169C13.75 8.87811 13.75 6.49998 13.75 6.49998C13.75 6.49998 13.75 4.12186 13.4894 2.98311Z" stroke="#F77626" stroke-width="1.5" stroke-linecap="round" stroke-linejoin="round"/>
<path fill-rule="evenodd" clip-rule="evenodd" d="M6.25122 8.375L9.49872 6.5L6.25122 4.625V8.375Z" stroke="#F77626" stroke-width="1.5" stroke-linecap="round" stroke-linejoin="round"/>
</svg>
